<?xml version="1.0" encoding="UTF-8" standalone="no"?>
<!-- Uploaded to: SVG Repo, www.svgrepo.com, Generator: SVG Repo Mixer Tools -->

<svg
   fill="#000000"
   height="800px"
   width="800px"
   version="1.1"
   id="Capa_1"
   viewBox="0 0 330 330"
   xml:space="preserve"
   sodipodi:docname="copymag-0.1.svg"
   inkscape:version="1.3.2 (091e20ef0f, 2023-11-25)"
   xmlns:inkscape="http://www.inkscape.org/namespaces/inkscape"
   xmlns:sodipodi="http://sodipodi.sourceforge.net/DTD/sodipodi-0.dtd"
   xmlns="http://www.w3.org/2000/svg"
   xmlns:svg="http://www.w3.org/2000/svg"><defs
   id="defs4" /><sodipodi:namedview
   id="namedview4"
   pagecolor="#ffffff"
   bordercolor="#000000"
   borderopacity="0.25"
   inkscape:showpageshadow="2"
   inkscape:pageopacity="0.0"
   inkscape:pagecheckerboard="0"
   inkscape:deskcolor="#d1d1d1"
   inkscape:zoom="1.01875"
   inkscape:cx="399.5092"
   inkscape:cy="399.0184"
   inkscape:window-width="1920"
   inkscape:window-height="1012"
   inkscape:window-x="0"
   inkscape:window-y="0"
   inkscape:window-maximized="1"
   inkscape:current-layer="Capa_1" />
<g
   id="g4">
	<path
   d="M35,270h45v45c0,8.284,6.716,15,15,15h200c8.284,0,15-6.716,15-15V75c0-8.284-6.716-15-15-15h-45V15   c0-8.284-6.716-15-15-15H35c-8.284,0-15,6.716-15,15v240C20,263.284,26.716,270,35,270z M280,300H110V90h170V300z M50,30h170v30H95   c-8.284,0-15,6.716-15,15v165H50V30z"
   id="path1" />
	<path
   d="M155,120c-8.284,0-15,6.716-15,15s6.716,15,15,15h80c8.284,0,15-6.716,15-15s-6.716-15-15-15H155z"
   id="path2" />
	<path
   d="M235,180h-80c-8.284,0-15,6.716-15,15s6.716,15,15,15h80c8.284,0,15-6.716,15-15S243.284,180,235,180z"
   id="path3" />
	
</g>
<path
   style="fill:#ff00ff;stroke-width:0.981595"
   d="m 219.78792,797.65261 c -11.49301,-3.68737 -19.85058,-12.06576 -23.46439,-23.52288 -1.87466,-5.94336 -1.9677,-8.92396 -1.9677,-63.03096 v -56.79259 l -58.65031,-0.28192 c -56.17958,-0.27005 -58.843652,-0.36484 -63.239978,-2.25017 -11.330332,-4.85892 -20.151636,-14.83635 -22.401276,-25.3372 -0.788893,-3.6824 -1.00754,-87.08938 -0.791782,-302.04043 l 0.298068,-296.953233 3.226255,-6.553378 c 3.741009,-7.598978 9.87058,-13.5462113 17.87804,-17.34622 L 76.07362,0.98159509 324.86969,0.72675387 c 276.12629,-0.28283547 254.11597,-0.7996564 264.81919,6.21817903 6.5377,4.2865971 11.47901,10.9722471 13.98759,18.9253341 1.87472,5.943561 1.9677,8.923936 1.9677,63.067485 v 56.829118 h 56.23549 c 62.90087,0 63.64253,0.0673 73.30267,6.64995 2.95151,2.01124 7.05382,6.07477 9.11626,9.03008 7.22435,10.35191 6.66186,-17.24843 6.38261,313.18198 l -0.25175,297.88646 -2.6387,5.63022 c -3.37133,7.19347 -11.04067,14.86281 -18.23415,18.23415 l -5.63022,2.63869 -249.32515,0.19751 c -237.38642,0.18805 -249.58795,0.11319 -254.81331,-1.5633 z M 679.2638,472.63804 V 217.42331 H 472.63804 266.01227 V 472.63804 727.85276 H 472.63804 679.2638 Z M 194.37983,380.6135 c 0.0154,-129.68837 0.37172,-203.47066 0.99567,-206.17562 2.57788,-11.17569 9.85782,-20.0772 20.57261,-25.15512 l 6.38318,-3.02509 155.82822,-0.26017 155.82822,-0.26018 V 108.94228 72.147239 H 327.36196 120.7362 V 327.36196 582.57669 h 36.80981 36.80982 z"
   id="path5"
   transform="scale(0.4125)" /><path
   style="fill:#008000;stroke-width:0.981595"
   d="m 366.13497,361.79029 c -12.40478,-3.83163 -21.83611,-13.80515 -25.09916,-26.54208 -1.86195,-7.26787 -1.38977,-13.07574 1.74519,-21.46613 2.86151,-7.65854 11.86054,-16.64034 19.91839,-19.88025 l 5.88957,-2.36809 h 104.04908 104.04908 l 5.67811,2.29182 c 7.98822,3.22422 16.33455,11.19995 19.91053,19.02644 2.39379,5.23909 2.81881,7.42112 2.8263,14.50996 0.007,6.98204 -0.41701,9.25948 -2.60067,13.95639 -3.43943,7.398 -10.18108,14.46108 -17.19529,18.01515 l -5.6742,2.87509 -105.52147,0.16985 c -58.03681,0.0934 -106.62577,-0.17125 -107.97546,-0.58815 z"
   id="path6"
   transform="scale(0.4125)" /><path
   style="fill:#008000;stroke-width:0.981595"
   d="m 369.12422,507.89804 c -19.64583,-3.9106 -32.9174,-24.29688 -28.08841,-43.14625 2.79076,-10.89343 9.1526,-18.81269 19.49122,-24.26282 l 5.11714,-2.69756 H 472.63804 579.6319 l 5.52102,2.71133 c 6.82629,3.35233 13.90289,10.76769 17.34847,18.17891 2.18366,4.69691 2.60804,6.97435 2.60067,13.95639 -0.007,7.08884 -0.43251,9.27087 -2.8263,14.50996 -3.57598,7.82649 -11.92231,15.80222 -19.91053,19.02644 l -5.67811,2.29182 -101.5951,0.1511 c -55.8773,0.0831 -103.56281,-0.24059 -105.9678,-0.71932 z"
   id="path7"
   transform="scale(0.4125)" /></svg>
